# xmcd
#
# Track frame offsets:
#	150
#	12455
#	29299
#	44458
#	61344
#	73919
#	89066
#	105739
#	123694
#	140430
#	156455
#	175254
#	191174
#	212073
#	231600
#	250264
#	267748
#
# Disc length: 3810 seconds
#
# Revision: 1
# Processed by: cddbd v1.5.1PL0 Copyright (c) Steve Scherf et al.
# Submitted via: audiograbber 1.83.01
#
DISCID=140ee011
DTITLE=Garth Brooks - CKC034
DYEAR=1900
DGENRE=Karaoke
TTITLE0=Two of a kind working on a full house
TTITLE1=Squeeze me in - with Trisha Yearwood
TTITLE2=Unanswered prayers
TTITLE3=The dance
TTITLE4=Papa loved mama
TTITLE5=Somewhere other than the night
TTITLE6=If tomorrow never comes
TTITLE7=Standing outside the fire
TTITLE8=Rodeo
TTITLE9=Two pina coladas
TTITLE10=Aint going down til the sun comes up
TTITLE11=What she's doing now
TTITLE12=Shameless
TTITLE13=Beaches of cheyenne
TTITLE14=To make you feel my love
TTITLE15=The thunder rolls
TTITLE16=Friends in love places
EXTD=CD+G Karaoke disc
EXTT0=
EXTT1=
EXTT2=
EXTT3=
EXTT4=
EXTT5=
EXTT6=
EXTT7=
EXTT8=
EXTT9=
EXTT10=
EXTT11=
EXTT12=
EXTT13=
EXTT14=
EXTT15=
EXTT16=
PLAYORDER=
